<svg height="512pt" viewBox="0 -26 512.00029 512" width="512pt" xmlns="http://www.w3.org/2000/svg"><path d="m282 460c-61.4375 0-119.191406-23.921875-162.632812-67.363281-5.859376-5.855469-5.859376-15.355469 0-21.210938 5.855468-5.859375 15.355468-5.859375 21.210937 0 37.773437 37.773438 88 58.574219 141.421875 58.574219 110.28125 0 200-89.71875 200-200s-89.71875-200-200-200c-78.582031 0-150.210938 46.320312-182.476562 118.007812-3.398438 7.554688-12.28125 10.921876-19.832032 7.519532-7.558594-3.398438-10.925781-12.28125-7.523437-19.832032 37.101562-82.433593 119.464843-135.695312 209.832031-135.695312 61.4375 0 119.191406 23.925781 162.636719 67.367188 43.441406 43.4375 67.363281 101.199218 67.363281 162.632812 0 61.4375-23.921875 119.195312-67.363281 162.636719-43.441407 43.441406-101.199219 67.363281-162.636719 67.363281zm0 0" fill="#ff0075"/><path d="m444.636719 67.367188c-43.441407-43.441407-101.199219-67.367188-162.636719-67.367188v30c110.28125 0 200 89.71875 200 200s-89.71875 200-200 200v30c61.4375 0 119.191406-23.921875 162.636719-67.363281 43.441406-43.441407 67.363281-101.199219 67.363281-162.636719 0-61.433594-23.921875-119.191406-67.363281-162.632812zm0 0" fill="#dc0069"/><path d="m90.277344 239.105469c-5.105469 0-9.898438-1.984375-13.503906-5.59375l-70.570313-70.566407c-6.066406-6.070312-7.867187-15.113281-4.582031-23.042968 3.285156-7.929688 10.949218-13.050782 19.53125-13.050782h138.246094c8.582031 0 16.25 5.121094 19.53125 13.050782 3.285156 7.929687 1.484374 16.972656-4.582032 23.042968l-70.570312 70.570313c-3.601563 3.601563-8.398438 5.589844-13.5 5.589844zm0 0" fill="#ff0075"/></svg>